<?xml version="1.0" encoding="utf-8"?>
<!-- Generator: Adobe Illustrator 18.1.0, SVG Export Plug-In . SVG Version: 6.00 Build 0)  -->
<svg version="1.1" id="Layer_1" xmlns="http://www.w3.org/2000/svg" xmlns:xlink="http://www.w3.org/1999/xlink" x="0px" y="0px"
	 viewBox="-117 119 20 20" enable-background="new -117 119 20 20" xml:space="preserve">
<title>Now Playing</title>
<desc>Created with Sketch.</desc>
<g id="_x30_5.100.00-OpenSource-Amplitude">
	<g id="HD_05.100.00-521Website_OpenSource-Amplitude" transform="translate(-729.000000, -384.000000)">
		<g id="Lead-in">
			<g id="Player" transform="translate(368.000000, 359.000000)">
				<g id="Playlist" transform="translate(352.000000, 5.000000)">
					<g id="Song-Item" transform="translate(1.000000, 0.000000)">
						<g id="Now-Playing">
							<g transform="translate(8.000000, 20.000000)">
								<circle id="Oval-1" fill="#97978B" cx="-107" cy="129" r="10"/>
								<path id="Fill-156" fill="#FFFFFF" d="M-108.1,131.1c-0.1,0-0.2,0-0.3-0.1l0,0l-1.6-1.2h-1.6c-0.3,0-0.5-0.2-0.5-0.5v-1.6
									c0-0.3,0.2-0.5,0.5-0.5v0h1.6l1.6-1.3l0,0c0.1-0.1,0.2-0.1,0.3-0.1c0.3,0,0.5,0.2,0.5,0.5v4.2
									C-107.6,130.9-107.8,131.1-108.1,131.1L-108.1,131.1z M-106.2,130.8l-0.4-0.4c0.4-0.5,0.6-1.1,0.6-1.8
									c0-0.7-0.2-1.3-0.6-1.8l0.4-0.4c0.5,0.6,0.8,1.4,0.8,2.2C-105.4,129.5-105.7,130.2-106.2,130.8L-106.2,130.8z M-105,132.1
									l-0.4-0.4c0.7-0.8,1.1-1.8,1.1-3c0-1.1-0.4-2.2-1.1-3l0.4-0.4c0.8,0.9,1.3,2.1,1.3,3.4C-103.7,129.9-104.2,131.1-105,132.1
									L-105,132.1z M-103.8,133.3l-0.4-0.4c1-1.1,1.6-2.6,1.6-4.2c0-1.6-0.6-3.1-1.6-4.2l0.4-0.4c1.1,1.2,1.8,2.8,1.8,4.6
									C-102,130.4-102.7,132-103.8,133.3L-103.8,133.3z"/>
							</g>
						</g>
					</g>
				</g>
			</g>
		</g>
	</g>
</g>
</svg>
