<?xml version="1.0" encoding="utf-8"?>
<!-- Generator: Adobe Illustrator 18.1.0, SVG Export Plug-In . SVG Version: 6.00 Build 0)  -->
<svg version="1.1" id="Layer_1" xmlns="http://www.w3.org/2000/svg" xmlns:xlink="http://www.w3.org/1999/xlink" x="0px" y="0px"
	 viewBox="-97 99 60 60" enable-background="new -97 99 60 60" xml:space="preserve">
<title>Oval 1</title>
<desc>Created with Sketch.</desc>
<g id="_x30_5.100.00-OpenSource-Amplitude">
	<g id="HD_05.100.00-521Website_OpenSource-Amplitude" transform="translate(-515.000000, -772.000000)">
		<g id="Lead-in">
			<g id="Player" transform="translate(368.000000, 359.000000)">
				<g id="Controllers_x2F_Status_x2F_Info" transform="translate(0.000000, 357.000000)">
					<g id="Controls" transform="translate(114.000000, 56.000000)">
						<g id="Play_x2F_Pause" transform="translate(33.000000, 0.000000)">
							<g id="Oval-1">
								<circle fill="#97978B" cx="-67" cy="129" r="30"/>
								<path id="Shape" fill="#FFFFFF" d="M-56.4,115.6h-4.3c-1.2,0-2.2,1-2.2,2.2v23.6c0,1.2,1,2.2,2.2,2.2h4.3
									c1.2,0,2.2-1,2.2-2.2v-23.6C-54.2,116.6-55.2,115.6-56.4,115.6L-56.4,115.6z"/>
								<path id="Shape_1_" fill="#FFFFFF" d="M-72.8,115.6h-4.3c-1.2,0-2.2,1-2.2,2.2v23.6c0,1.2,1,2.2,2.2,2.2h4.3
									c1.2,0,2.2-1,2.2-2.2v-23.6C-70.6,116.6-71.6,115.6-72.8,115.6L-72.8,115.6z"/>
							</g>
						</g>
					</g>
				</g>
			</g>
		</g>
	</g>
</g>
</svg>
