<?xml version="1.0" encoding="utf-8"?>
<!-- Generator: Adobe Illustrator 18.1.0, SVG Export Plug-In . SVG Version: 6.00 Build 0)  -->
<svg version="1.1" id="Layer_1" xmlns="http://www.w3.org/2000/svg" xmlns:xlink="http://www.w3.org/1999/xlink" x="0px" y="0px"
	 viewBox="-108 109 39 39" enable-background="new -108 109 39 39" xml:space="preserve">
<title>Previous</title>
<desc>Created with Sketch.</desc>
<g id="_x30_5.100.00-OpenSource-Amplitude">
	<g id="HD_05.100.00-521Website_OpenSource-Amplitude" transform="translate(-482.000000, -782.000000)">
		<g id="Lead-in">
			<g id="Player" transform="translate(368.000000, 359.000000)">
				<g id="Controllers_x2F_Status_x2F_Info" transform="translate(0.000000, 357.000000)">
					<g id="Controls" transform="translate(114.000000, 56.000000)">
						<g id="Previous" transform="translate(0.000000, 10.000000)">
							<ellipse id="Oval-1" fill="#97978B" cx="-88.5" cy="128.5" rx="19.5" ry="19.5"/>
							<path id="Shape" fill="#FFFFFF" d="M-91.9,127.3v-6c0-0.7-0.6-1.3-1.3-1.3h-2.6c-0.7,0-1.3,0.6-1.3,1.3v13.9
								c0,0.7,0.6,1.3,1.3,1.3h2.6c0.7,0,1.3-0.6,1.3-1.3v-6l11.3,7c0.9,0.6,1.6,0.2,1.6-0.9v-14.2c0-1.1-0.7-1.5-1.6-0.9
								L-91.9,127.3z"/>
						</g>
					</g>
				</g>
			</g>
		</g>
	</g>
</g>
</svg>
