<?xml version="1.0" encoding="utf-8"?>
<!-- Generator: Adobe Illustrator 18.1.0, SVG Export Plug-In . SVG Version: 6.00 Build 0)  -->
<svg version="1.1" id="Layer_1" xmlns="http://www.w3.org/2000/svg" xmlns:xlink="http://www.w3.org/1999/xlink" x="0px" y="0px"
	 viewBox="-116 119 23 20" enable-background="new -116 119 23 20" xml:space="preserve">
<title>Fill 83</title>
<desc>Created with Sketch.</desc>
<g id="_x30_5.100.00-OpenSource-Amplitude">
	<g id="HD_05.100.00-521Website_OpenSource-Amplitude" transform="translate(-637.000000, -792.000000)">
		<g id="Lead-in">
			<g id="Player" transform="translate(368.000000, 359.000000)">
				<g id="Controllers_x2F_Status_x2F_Info" transform="translate(0.000000, 357.000000)">
					<path id="Fill-83" fill="#97978B" d="M169.6,209.6h2.1v0h0.6l-0.7-0.7c-0.2-0.2-0.3-0.5-0.3-0.8c0-0.6,0.5-1.1,1.1-1.1
						c0.3,0,0.6,0.1,0.8,0.3l2.5,2.6c0.2,0.2,0.3,0.5,0.3,0.8c0,0.3-0.1,0.6-0.3,0.8l-2.5,2.6c-0.2,0.2-0.5,0.3-0.8,0.3
						c-0.6,0-1.1-0.5-1.1-1.1c0-0.3,0.1-0.6,0.3-0.8l0.7-0.7h-3.2c-0.3,0-0.6-0.1-0.8-0.3l-4.2-4.3l1.5-1.5L169.6,209.6L169.6,209.6
						z M161.1,204l-3.9-4h-3.1c-0.6,0-1.1-0.5-1.1-1.1c0-0.6,0.5-1.1,1.1-1.1h3.6c0.3,0,0.6,0.1,0.8,0.3l4.2,4.3L161.1,204
						L161.1,204z M173.2,202.3c-0.2,0.2-0.5,0.3-0.8,0.3c-0.6,0-1.1-0.5-1.1-1.1c0-0.3,0.1-0.6,0.3-0.8l0.7-0.7h-2.7l-11.2,11.4
						c-0.2,0.2-0.5,0.3-0.8,0.3h-3.6c-0.6,0-1.1-0.5-1.1-1.1s0.5-1.1,1.1-1.1h3.1l11.2-11.4c0.2-0.2,0.5-0.3,0.8-0.3h3.2l-0.7-0.7
						c-0.2-0.2-0.3-0.5-0.3-0.8c0-0.6,0.5-1.1,1.1-1.1c0.3,0,0.6,0.1,0.8,0.3l2.5,2.6c0.2,0.2,0.3,0.5,0.3,0.8
						c0,0.3-0.1,0.6-0.3,0.8L173.2,202.3L173.2,202.3z"/>
				</g>
			</g>
		</g>
	</g>
</g>
</svg>
